<svg xmlns="http://www.w3.org/2000/svg" viewBox="0 0 400 250" preserveAspectRatio="xMidYMid slice">
  <rect width="400" height="250" fill="#2a2a2a"/>
  <rect x="80" y="40" width="240" height="170" fill="#444" stroke="#888" stroke-width="2"/>
  <g fill="#1a1a1a" stroke="#777" stroke-width="1">
    <rect x="100" y="70" width="20" height="30"/>
    <rect x="125" y="70" width="20" height="30"/>
    <rect x="150" y="70" width="20" height="30"/>
    <rect x="175" y="70" width="20" height="30"/>
    <rect x="200" y="70" width="20" height="30"/>
    <rect x="225" y="70" width="20" height="30"/>
    <rect x="250" y="70" width="20" height="30"/>
    <rect x="275" y="70" width="20" height="30"/>
    <rect x="100" y="110" width="20" height="30"/>
    <rect x="125" y="110" width="20" height="30"/>
    <rect x="150" y="110" width="20" height="30"/>
    <rect x="175" y="110" width="20" height="30"/>
    <rect x="200" y="110" width="20" height="30"/>
    <rect x="225" y="110" width="20" height="30"/>
    <rect x="250" y="110" width="20" height="30"/>
    <rect x="275" y="110" width="20" height="30"/>
  </g>
  <rect x="170" y="160" width="60" height="35" fill="#C8102E" stroke="#fff" stroke-width="1.5"/>
  <circle cx="110" cy="55" r="3" fill="#2e8b57"/>
  <circle cx="125" cy="55" r="3" fill="#FFD700"/>
  <circle cx="140" cy="55" r="3" fill="#C8102E"/>
</svg>
